<svg xmlns="http://www.w3.org/2000/svg" height="24" viewBox="0 -960 960 960" width="24"><path d="M479.765-252Q558-252 613-306.765q55-54.764 55-133Q668-518 613.235-573q-54.764-55-133-55Q402-628 347-573.235q-55 54.764-55 133Q292-362 346.765-307q54.764 55 133 55ZM480-358q-35 0-58.5-23.5T398-440q0-35 23.5-58.5T480-522q35 0 58.5 23.5T562-440q0 35-23.5 58.5T480-358ZM172-86q-53 0-89.5-36.5T46-212v-456q0-53 36.5-89.5T172-794h96l88-80h248l88 80h96q53 0 89.5 36.5T914-668v456q0 53-36.5 89.5T788-86H172Zm0-126h616v-456H641l-84-80H406l-90 80H172v456Zm308-228Z"/></svg>