<?xml version="1.0" standalone="no"?>
<!DOCTYPE svg PUBLIC "-//W3C//DTD SVG 20010904//EN"
 "http://www.w3.org/TR/2001/REC-SVG-20010904/DTD/svg10.dtd">
<svg version="1.0" xmlns="http://www.w3.org/2000/svg"
 width="64.000000pt" height="64.000000pt" viewBox="0 0 64.000000 64.000000"
 preserveAspectRatio="xMidYMid meet">

<g transform="translate(0.000000,64.000000) scale(0.100000,-0.100000)"
fill="#000000" stroke="none">
<path d="M0 320 l0 -320 320 0 320 0 0 320 0 320 -320 0 -320 0 0 -320z m320
249 c14 0 42 3 63 7 44 7 63 -5 84 -54 21 -51 2 -107 -58 -164 -60 -59 -87
-67 -133 -39 -104 64 -141 174 -82 239 18 20 27 23 61 17 22 -3 51 -6 65 -6z
m-192 -396 c-3 -80 -5 -88 -23 -88 -18 0 -20 8 -23 88 l-3 87 26 0 26 0 -3
-87z m177 49 c47 -14 60 -23 60 -38 0 -20 -6 -21 -67 -9 -31 6 -38 4 -38 -9 0
-21 76 -41 110 -29 18 6 26 17 28 40 3 28 8 32 50 42 26 7 54 14 63 17 22 6
50 -22 42 -42 -8 -23 -179 -134 -205 -134 -12 0 -60 12 -105 28 l-83 27 0 63
0 62 43 0 c23 0 69 -8 102 -18z"/>
</g>
</svg>
