<svg version="1.1" id="Layer_1" xmlns="http://www.w3.org/2000/svg" xmlns:xlink="http://www.w3.org/1999/xlink" x="0px" y="0px"
	 width="100%" viewBox="0 0 64 64" enable-background="new 0 0 64 64" xml:space="preserve">
<path fill="#000000" opacity="1.000000" stroke="none" 
	d="
M44.000557,65.000000 
	C29.333736,65.000000 15.167089,65.000000 1.000331,65.000000 
	C1.000221,43.666843 1.000221,22.333683 1.000110,1.000394 
	C22.333130,1.000262 43.666260,1.000262 64.999542,1.000131 
	C64.999695,22.333101 64.999695,43.666203 64.999847,64.999649 
	C58.166912,65.000000 51.333820,65.000000 44.000557,65.000000 
M17.009129,13.052912 
	C15.779953,23.903511 21.156870,30.759424 30.521988,35.042969 
	C31.830538,35.641491 33.798553,35.873596 35.053665,35.331516 
	C41.209373,32.672863 46.132870,28.398380 48.363712,21.980635 
	C49.959751,17.389103 49.942215,12.255395 46.455452,8.477580 
	C43.066593,4.805837 38.577824,5.259948 34.202515,7.298117 
	C33.303116,7.717087 31.983181,7.745141 31.021492,7.438221 
	C22.743067,4.796193 21.508814,5.181932 17.009129,13.052912 
M41.939007,57.607178 
	C46.348293,54.509789 50.915390,51.604683 55.068954,48.195713 
	C56.286507,47.196426 56.942657,44.662228 56.667137,43.032520 
	C56.516052,42.138851 53.819805,40.990459 52.384048,41.128731 
	C48.245430,41.527309 44.164139,42.521217 40.418610,43.214939 
	C40.158958,45.481232 39.966274,47.163006 39.773590,48.844780 
	C38.690990,42.384502 29.090973,39.228348 17.190653,41.678875 
	C17.190653,45.914383 17.190653,50.189754 17.190653,54.227314 
	C20.280102,55.378471 23.139370,56.473469 26.019510,57.510498 
	C31.060808,59.325672 36.075222,62.128483 41.939007,57.607178 
M10.621066,56.959972 
	C12.021270,56.866566 13.421474,56.773159 14.999108,56.667919 
	C14.999108,51.684662 15.041299,47.208023 14.987665,42.732536 
	C14.929904,37.912750 14.593740,37.697025 8.709695,38.738041 
	C9.039446,44.696667 9.374217,50.746025 10.621066,56.959972 
z"/>
<path fill="#55A38C" opacity="1.000000" stroke="none" 
	d="
M17.027950,12.628793 
	C21.508814,5.181932 22.743067,4.796193 31.021492,7.438221 
	C31.983181,7.745141 33.303116,7.717087 34.202515,7.298117 
	C38.577824,5.259948 43.066593,4.805837 46.455452,8.477580 
	C49.942215,12.255395 49.959751,17.389103 48.363712,21.980635 
	C46.132870,28.398380 41.209373,32.672863 35.053665,35.331516 
	C33.798553,35.873596 31.830538,35.641491 30.521988,35.042969 
	C21.156870,30.759424 15.779953,23.903511 17.027950,12.628793 
z"/>
<path fill="#55A38C" opacity="1.000000" stroke="none" 
	d="
M41.644230,57.859146 
	C36.075222,62.128483 31.060808,59.325672 26.019510,57.510498 
	C23.139370,56.473469 20.280102,55.378471 17.190653,54.227314 
	C17.190653,50.189754 17.190653,45.914383 17.190653,41.678875 
	C29.090973,39.228348 38.690990,42.384502 39.773590,48.844780 
	C39.966274,47.163006 40.158958,45.481232 40.418610,43.214939 
	C44.164139,42.521217 48.245430,41.527309 52.384048,41.128731 
	C53.819805,40.990459 56.516052,42.138851 56.667137,43.032520 
	C56.942657,44.662228 56.286507,47.196426 55.068954,48.195713 
	C50.915390,51.604683 46.348293,54.509789 41.644230,57.859146 
M35.693222,50.989052 
	C36.596127,50.644215 37.499031,50.299377 39.652809,49.476807 
	C34.940819,48.963074 31.689112,48.608555 28.437405,48.254032 
	C28.367495,48.526680 28.297585,48.799324 28.227676,49.071972 
	C30.426287,49.709381 32.624897,50.346794 35.693222,50.989052 
z"/>
<path fill="#55A38C" opacity="1.000000" stroke="none" 
	d="
M10.165028,56.877678 
	C9.374217,50.746025 9.039446,44.696667 8.709695,38.738041 
	C14.593740,37.697025 14.929904,37.912750 14.987665,42.732536 
	C15.041299,47.208023 14.999108,51.684662 14.999108,56.667919 
	C13.421474,56.773159 12.021270,56.866566 10.165028,56.877678 
z"/>
<path fill="#000000" opacity="1.000000" stroke="none" 
	d="
M35.258366,50.986626 
	C32.624897,50.346794 30.426287,49.709381 28.227676,49.071972 
	C28.297585,48.799324 28.367495,48.526680 28.437405,48.254032 
	C31.689112,48.608555 34.940819,48.963074 39.652809,49.476807 
	C37.499031,50.299377 36.596127,50.644215 35.258366,50.986626 
z"/>
</svg>