<svg xmlns:dc="http://purl.org/dc/elements/1.1/" xmlns:cc="http://creativecommons.org/ns#" xmlns:rdf="http://www.w3.org/1999/02/22-rdf-syntax-ns#" xmlns:svg="http://www.w3.org/2000/svg" xmlns="http://www.w3.org/2000/svg" xmlns:sodipodi="http://sodipodi.sourceforge.net/DTD/sodipodi-0.dtd" xmlns:inkscape="http://www.inkscape.org/namespaces/inkscape" version="1.1" viewBox="0 0 16.933333 21.1666675" x="0px" y="0px"><g><path d="m 14.263146,1.5904437 c -0.09149,-0.00405 -0.182986,-0.00411 -0.274404,5.292e-4 -0.731348,0.037025 -1.448298,0.352121 -1.974575,0.9358603 L 11.668449,2.8725484 11.307227,2.5108135 c -1.156933,-1.1595672 -3.0500842,-1.1595674 -4.207016,0 A 0.52922274,0.52921796 0 0 0 7.080574,2.5304505 C 6.0297157,3.7008009 6.1255233,5.5159643 7.2934822,6.5694809 l -0.021704,-0.017571 0.7363958,0.7363894 3.2851,3.2928217 a 0.52922274,0.52921796 0 0 0 0.750349,0 L 15.328724,7.2882993 16.06667,6.5482925 c 1.155552,-1.1581795 1.15555,-3.0508624 0,-4.2090455 A 0.52922274,0.52921796 0 0 0 16.04755,2.321676 C 15.537825,1.8600226 14.9036,1.6187803 14.263145,1.5904545 Z m -0.221694,1.0495484 c 0.453514,-0.02296 0.912664,0.1348497 1.281071,0.4630208 0.739421,0.7546648 0.742222,1.9473858 -0.0057,2.696993 L 14.578375,6.5405292 11.668449,9.4581803 8.7564555,6.5405292 8.0216102,5.80414 A 0.52922274,0.52921796 0 0 0 8.0024886,5.7845027 C 7.262432,5.1169602 7.2050711,3.9968114 7.8634776,3.2513238 8.6166405,2.510061 9.8108694,2.5072295 10.558945,3.2570071 l 0.734328,0.7363891 a 0.52922274,0.52921796 0 0 0 0.750349,0 l 0.737946,-0.7400065 a 0.52922274,0.52921796 0 0 0 0.01757,-0.019637 C 13.133634,2.8627353 13.583214,2.6631889 14.041452,2.6399902 Z M 4.2326597,9.5248433 c -0.4276504,0 -0.8317126,0.132209 -1.1580793,0.285254 C 2.1375767,10.249491 1.4929286,10.086797 0.54706316,10.05401 A 0.52916982,0.52916504 0 0 0 3.215435e-4,10.563539 0.52916982,0.52916504 0 0 0 0.50985579,11.110793 c 0.82577001,0.02862 1.80403501,0.225202 3.01379701,-0.342098 0.1706356,-0.08002 0.5874592,-0.185519 0.7090069,-0.185519 h 0.8867758 c 0.4174573,0 0.8314527,0.07959 1.2190578,0.234611 l 0.950855,0.380856 c 0.3272552,0.130859 0.4973056,0.477597 0.400496,0.816487 -0.041039,0.14362 -0.1764019,0.212639 -0.3162625,0.160197 L 6.0392842,11.675099 A 0.52916982,0.52916504 0 0 0 5.3576658,11.983608 0.52916982,0.52916504 0 0 0 5.666177,12.66522 l 1.3342974,0.500228 c 0.2198602,0.08244 0.4488707,0.09968 0.6661155,0.06253 a 0.52916982,0.52916504 0 0 0 0.00568,0 h 3.4396141 c 0.311778,0 0.547805,0.242633 0.554494,0.552421 -0.01552,0.291981 -0.242731,0.514829 -0.536923,0.505913 a 0.52922274,0.52921796 0 0 0 -0.01757,0 H 8.531659 c -0.6746579,0 -1.3471396,-0.09319 -1.9962787,-0.276986 L 4.4083613,13.407293 C 3.9904045,13.288955 3.5575439,13.227976 3.1231567,13.227976 H 0.529493 A 0.52916982,0.52916504 0 0 0 3.215435e-4,13.757143 0.52916982,0.52916504 0 0 0 0.529493,14.28631 h 2.5936637 c 0.336896,0 0.6721775,0.04723 0.9963307,0.139009 l 2.1270211,0.601514 c 0.7429425,0.210355 1.5130039,0.318327 2.2851526,0.318327 h 2.5642079 c 0.870303,0.02637 1.61075,-0.669146 1.637124,-1.539441 a 0.52922274,0.52921796 0 0 0 0,-0.01757 c 0,-0.888138 -0.732958,-1.619023 -1.621104,-1.619023 H 8.7388855 C 8.901598,11.35808 8.4616266,10.527983 7.6820927,10.216273 L 6.730721,9.8354173 C 6.2181251,9.6304033 5.6715098,9.5248423 5.1194355,9.5248423 Z" style="color:#000000;font-style:normal;font-variant:normal;font-weight:normal;font-stretch:normal;font-size:medium;line-height:normal;font-family:sans-serif;font-variant-ligatures:normal;font-variant-position:normal;font-variant-caps:normal;font-variant-numeric:normal;font-variant-alternates:normal;font-variant-east-asian:normal;font-feature-settings:normal;font-variation-settings:normal;text-indent:0;text-align:start;text-decoration:none;text-decoration-line:none;text-decoration-style:solid;text-decoration-color:#000000;letter-spacing:normal;word-spacing:normal;text-transform:none;writing-mode:lr-tb;direction:ltr;text-orientation:mixed;dominant-baseline:auto;baseline-shift:baseline;text-anchor:start;white-space:normal;shape-padding:0;shape-margin:0;inline-size:0;clip-rule:nonzero;display:inline;overflow:visible;visibility:visible;opacity:1;isolation:auto;mix-blend-mode:normal;color-interpolation:sRGB;color-interpolation-filters:linearRGB;solid-color:#000000;solid-opacity:1;vector-effect:none;fill:#000000;fill-opacity:1;fill-rule:evenodd;stroke:none;stroke-width:1.05833;stroke-linecap:round;stroke-linejoin:round;stroke-miterlimit:4;stroke-dasharray:none;stroke-dashoffset:0;stroke-opacity:1;color-rendering:auto;image-rendering:auto;shape-rendering:auto;text-rendering:auto;enable-background:accumulate;stop-color:#000000;stop-opacity:1"/></g><text x="0" y="31.933334" fill="#000000" font-size="5px" font-weight="bold" font-family="'Helvetica Neue', Helvetica, Arial-Unicode, Arial, Sans-serif">Created by Muhammad Naufal Subhiansyah</text><text x="0" y="36.933334" fill="#000000" font-size="5px" font-weight="bold" font-family="'Helvetica Neue', Helvetica, Arial-Unicode, Arial, Sans-serif">from the Noun Project</text></svg>